<?xml version="1.0" ?><svg id="Layer_2" style="enable-background:new 0 0 1000 1000;" version="1.1" viewBox="0 0 1000 1000" xml:space="preserve" xmlns="http://www.w3.org/2000/svg" xmlns:xlink="http://www.w3.org/1999/xlink"><path d="M164.862,590.883h49.54c5.23,31.61,32.68,55.7,65.77,55.7c33.09,0,60.54-24.09,65.771-55.7h301.939  c5.231,31.61,32.681,55.7,65.771,55.7c33.09,0,60.54-24.09,65.77-55.7h43.17c10.61,0,19.96-7.59,22.981-18.66l1.35-4.94  c0.67-2.44,0.99-4.94,0.99-7.42c0-6.04-1.92-11.97-5.56-16.72c-3.58-4.69-5.551-10.6-5.551-16.71v-23.55l-2.22-12.42  c-2.75-15.42-9.36-29.71-19.11-41.3l-49.409-58.75c-2.56-3.04-3.931-6.98-3.931-11.01c0-1.37,0.16-2.74,0.481-4.09  c2.59-10.93-5.55-21.35-15.87-20.33l-39.43,3.9l-125.57-5.13c-14.24-0.58-28.49-0.41-42.72,0.5l-89.681,5.77  c-9.16,0.57-18.13,3.05-26.42,7.32l-97.17,50.04c-5.81,2.99-11.95,5.11-18.28,6.3l-92.38,17.5c-15.33,2.9-28.01,14.6-33.17,30.59  l-6.55,20.35c-2.28,7.07-6.08,13.44-11.09,18.57l-4.69,4.8c-2.16,2.22-3.689,5.05-4.42,8.18l-5.88,25.21v25.04  C149.292,583.294,156.262,590.883,164.862,590.883z M777.394,465.35l29.149,6.126c2.007,0.422,3.678,1.802,4.471,3.693l8.292,19.774  c0.888,2.118,0.54,4.553-0.904,6.338l-2.874,3.55c-1.898,2.345-5.204,2.996-7.85,1.545l-24.969-13.692  c-0.957-0.525-1.761-1.292-2.328-2.225l-9.599-15.759C767.94,470.034,772.046,464.226,777.394,465.35z M579.412,496.717h-21.667  c-4.694,0-8.5-3.805-8.5-8.5c0-4.694,3.806-8.5,8.5-8.5h21.667c4.694,0,8.5,3.806,8.5,8.5  C587.912,492.911,584.106,496.717,579.412,496.717z M678.063,606.664c-3.5-4.65-6.101-9.99-7.56-15.78  c-0.4-1.54-0.71-3.11-0.94-4.71c1.85,0.42,3.909,0.66,6.09,0.66c3.18,0,6.109-0.5,8.49-1.35c0.35,1.87,0.869,3.68,1.55,5.4  c0.819,2.12,1.88,4.12,3.149,5.97c-2.279,1.09-4.699,2.8-6.949,5.05C680.352,603.434,679.072,605.063,678.063,606.664z   M708.082,550.404c-4.15,0.78-8,2.41-11.37,4.71c-1.08-2.28-2.79-4.71-5.04-6.95c-1.54-1.54-3.16-2.82-4.76-3.83  c5.87-4.43,12.87-7.43,20.48-8.5c-0.421,1.85-0.66,3.91-0.66,6.09C706.732,545.104,707.242,548.033,708.082,550.404z   M688.842,562.983c-2.3,3.36-3.93,7.22-4.699,11.37c-2.381-0.84-5.311-1.35-8.49-1.35c-2.181,0-4.24,0.24-6.09,0.66  c1.08-7.61,4.069-14.61,8.5-20.48c1.01,1.6,2.29,3.22,3.83,4.76C684.143,560.194,686.563,561.904,688.842,562.983z M707.393,624.013  c-7.61-1.08-14.61-4.08-20.48-8.5c1.6-1.01,3.22-2.29,4.76-3.83c2.25-2.25,3.96-4.68,5.04-6.96c3.37,2.3,7.22,3.93,11.37,4.71  c-0.84,2.38-1.35,5.31-1.35,8.49C706.732,620.104,706.972,622.164,707.393,624.013z M713.652,591.954c-1.76,0-3.44-0.38-4.95-1.07  c-4.18-1.89-7.09-6.09-7.09-10.96c0-6.64,5.399-12.04,12.04-12.04c6.64,0,12.04,5.4,12.04,12.04c0,4.87-2.91,9.07-7.09,10.96  C717.092,591.573,715.412,591.954,713.652,591.954z M719.902,624.013c0.42-1.85,0.67-3.91,0.67-6.09c0-3.18-0.51-6.11-1.36-8.49  c4.16-0.78,8.01-2.41,11.38-4.71c1.08,2.28,2.79,4.71,5.04,6.96c1.54,1.54,3.16,2.82,4.761,3.83  C734.523,619.934,727.523,622.934,719.902,624.013z M756.802,590.883c-1.46,5.79-4.069,11.13-7.56,15.78  c-1.01-1.6-2.29-3.23-3.83-4.76c-2.25-2.25-4.68-3.96-6.95-5.05c1.271-1.85,2.33-3.85,3.15-5.97c0.68-1.72,1.2-3.53,1.55-5.4  c2.38,0.85,5.31,1.35,8.49,1.35c2.18,0,4.24-0.24,6.09-0.66C757.512,587.773,757.202,589.344,756.802,590.883z M749.242,553.184  c4.42,5.87,7.42,12.87,8.5,20.48c-1.85-0.42-3.91-0.66-6.09-0.66c-3.181,0-6.11,0.51-8.49,1.35c-0.77-4.15-2.4-8.01-4.7-11.37  c2.271-1.08,4.7-2.79,6.95-5.04C746.952,556.404,748.232,554.783,749.242,553.184z M735.632,548.164c-2.25,2.24-3.96,4.67-5.04,6.95  c-3.37-2.3-7.22-3.93-11.38-4.71c0.851-2.37,1.36-5.3,1.36-8.48c0-2.18-0.25-4.24-0.67-6.09c7.609,1.07,14.62,4.07,20.49,8.5  C738.792,545.344,737.172,546.623,735.632,548.164z M629.573,380.728l76.719,3.134c0.34,0.014,0.681,0.021,1.021,0.021  c0.821,0,1.643-0.041,2.461-0.122l12.076-1.195c1.826-0.181,3.289,1.489,2.868,3.276l-4.56,19.384  c-3.931,16.709-17.623,29.353-34.592,31.942l-36.414,4.025c-1.808,0.2-3.257-1.417-2.914-3.202c0.002-0.012,0.005-0.025,0.007-0.037  c2.503-13.102-0.327-26.338-7.969-37.272l-11.006-15.747C626.002,383.121,627.36,380.638,629.573,380.728z M336.712,439.858  c0.16-0.082,0.321-0.164,0.481-0.246l97.174-50.042c5.226-2.692,10.785-4.237,16.526-4.594l89.734-5.773  c8.145-0.521,16.407-0.785,24.549-0.785c5.163,0,10.394,0.107,15.548,0.316c7.596,0.31,14.61,4.15,18.965,10.38l18.096,25.891  c7.74,11.075,4.822,26.353-6.455,33.797l-6.846,4.518c-3.855,2.544-8.362,3.923-12.981,3.97l-250.185,2.553  c-3.742,0.038-7.313-1.924-9.259-5.342C329.082,449.27,331.345,442.58,336.712,439.858z M244.582,606.664  c-3.49-4.65-6.1-9.99-7.559-15.78c-0.4-1.54-0.71-3.11-0.941-4.71c1.85,0.42,3.91,0.66,6.09,0.66c3.181,0,6.11-0.5,8.49-1.35  c0.35,1.87,0.87,3.68,1.55,5.4c0.82,2.12,1.88,4.12,3.15,5.97c-2.271,1.09-4.7,2.8-6.95,5.05  C246.872,603.434,245.592,605.063,244.582,606.664z M273.922,624.013c-7.609-1.08-14.62-4.08-20.49-8.5  c1.601-1.01,3.221-2.29,4.761-3.83c2.25-2.25,3.96-4.68,5.04-6.96c3.37,2.3,7.22,3.93,11.38,4.71c-0.851,2.38-1.36,5.31-1.36,8.49  C273.252,620.104,273.502,622.164,273.922,624.013z M286.432,624.013c0.421-1.85,0.66-3.91,0.66-6.09c0-3.18-0.51-6.11-1.35-8.49  c4.15-0.78,8-2.41,11.37-4.71c1.08,2.28,2.79,4.71,5.04,6.96c1.54,1.54,3.16,2.82,4.76,3.83  C301.042,619.934,294.042,622.934,286.432,624.013z M323.322,590.883c-1.46,5.79-4.061,11.13-7.561,15.78  c-1.01-1.6-2.29-3.23-3.83-4.76c-2.25-2.25-4.67-3.96-6.949-5.05c1.27-1.85,2.33-3.85,3.149-5.97c0.681-1.72,1.2-3.53,1.55-5.4  c2.381,0.85,5.311,1.35,8.49,1.35c2.181,0,4.24-0.24,6.09-0.66C324.032,587.773,323.722,589.344,323.322,590.883z M311.932,557.944  c1.54-1.54,2.82-3.16,3.83-4.76c4.431,5.87,7.42,12.87,8.5,20.48c-1.85-0.42-3.909-0.66-6.09-0.66c-3.18,0-6.109,0.51-8.49,1.35  c-0.77-4.15-2.399-8.01-4.699-11.37C307.262,561.904,309.682,560.194,311.932,557.944z M286.432,535.833  c7.61,1.07,14.61,4.07,20.48,8.5c-1.6,1.01-3.22,2.29-4.76,3.83c-2.25,2.24-3.96,4.67-5.04,6.95c-3.37-2.3-7.22-3.93-11.37-4.71  c0.84-2.37,1.35-5.3,1.35-8.48C287.092,539.743,286.853,537.684,286.432,535.833z M292.212,579.924c0,4.87-2.91,9.07-7.09,10.96  c-1.51,0.69-3.19,1.07-4.95,1.07c-1.76,0-3.44-0.38-4.95-1.07c-4.18-1.89-7.09-6.09-7.09-10.96c0-6.64,5.4-12.04,12.04-12.04  C286.813,567.883,292.212,573.283,292.212,579.924z M273.922,535.833c-0.42,1.85-0.67,3.91-0.67,6.09c0,3.18,0.51,6.11,1.36,8.48  c-4.16,0.78-8.01,2.41-11.38,4.71c-1.08-2.28-2.79-4.71-5.04-6.95c-1.54-1.54-3.16-2.82-4.761-3.83  C259.302,539.904,266.313,536.904,273.922,535.833z M248.412,557.944c2.25,2.25,4.68,3.96,6.95,5.04c-2.3,3.36-3.931,7.22-4.7,11.37  c-2.38-0.84-5.31-1.35-8.49-1.35c-2.18,0-4.24,0.24-6.09,0.66c1.08-7.61,4.08-14.61,8.5-20.48  C245.592,554.783,246.872,556.404,248.412,557.944z M189.855,494.944l8.291-19.774c0.793-1.891,2.465-3.272,4.471-3.693  l29.149-6.126c5.349-1.124,9.455,4.684,6.612,9.351l-9.599,15.759c-0.568,0.933-1.371,1.7-2.329,2.225l-24.968,13.692  c-2.646,1.451-5.951,0.8-7.85-1.545l-2.874-3.55C189.314,499.497,188.966,497.062,189.855,494.944z" style="fill:#231F20;"/></svg>